<svg id="svg" version="1.1" xmlns="http://www.w3.org/2000/svg"
    xmlns:xlink="http://www.w3.org/1999/xlink" width="400" height="300" viewBox="0, 0, 400,400">
    <g id="svgg">
        <path id="path0"
            d="M66.997 12.405 C 66.863 12.622,66.223 12.800,65.576 12.800 C 64.929 12.800,64.400 12.980,64.400 13.200 C 64.400 13.420,63.858 13.600,63.195 13.600 C 62.532 13.600,61.587 13.808,61.095 14.062 C 59.218 15.033,58.793 15.200,58.205 15.200 C 57.872 15.200,57.600 15.380,57.600 15.600 C 57.600 15.820,57.364 16.000,57.075 16.000 C 56.787 16.000,56.202 16.315,55.775 16.700 C 55.349 17.085,54.505 17.655,53.900 17.968 C 53.295 18.280,52.800 18.685,52.800 18.868 C 52.800 19.050,52.534 19.200,52.209 19.200 C 51.370 19.200,44.055 26.643,43.767 27.790 C 43.635 28.314,43.313 28.825,43.051 28.925 C 42.788 29.026,42.219 29.847,41.787 30.750 C 41.354 31.652,40.865 32.393,40.700 32.395 C 40.535 32.398,40.400 32.839,40.400 33.376 C 40.400 33.913,40.220 34.464,40.000 34.600 C 39.780 34.736,39.600 35.197,39.600 35.624 C 39.600 36.051,39.420 36.400,39.200 36.400 C 38.980 36.400,38.800 36.940,38.800 37.600 C 38.800 38.260,38.620 38.800,38.400 38.800 C 38.180 38.800,38.000 39.520,38.000 40.400 C 38.000 41.280,37.820 42.000,37.600 42.000 C 37.335 42.000,37.224 66.520,37.270 114.900 C 37.309 154.995,37.444 186.161,37.570 184.158 L 37.800 180.516 39.515 178.958 C 40.458 178.101,41.808 176.812,42.515 176.092 C 43.222 175.373,47.081 171.503,51.090 167.492 C 60.114 158.465,58.708 159.872,67.492 151.092 C 71.563 147.023,75.434 143.154,76.094 142.494 C 77.654 140.933,90.949 127.638,92.440 126.147 C 93.071 125.516,96.940 121.645,101.039 117.545 C 110.042 108.538,108.428 110.152,117.437 101.147 C 121.538 97.048,125.434 93.154,126.094 92.494 C 127.654 90.934,140.934 77.654,142.494 76.094 C 143.154 75.434,146.998 71.588,151.037 67.547 C 159.932 58.648,158.515 60.064,167.545 51.039 C 171.645 46.940,175.492 43.095,176.094 42.494 C 176.695 41.892,180.361 38.226,184.241 34.347 C 188.120 30.468,191.834 26.754,192.494 26.094 C 193.154 25.434,196.437 22.110,199.789 18.708 L 205.884 12.522 197.642 12.258 C 184.087 11.824,67.275 11.955,66.997 12.405 M249.200 138.400 C 249.200 138.620,249.560 138.800,250.000 138.800 C 250.440 138.800,250.800 138.620,250.800 138.400 C 250.800 138.180,250.440 138.000,250.000 138.000 C 249.560 138.000,249.200 138.180,249.200 138.400 "
            stroke="none" fill="#84e1fc" fill-rule="evenodd"></path>
        <path id="path1"
            d="M200.492 12.299 L 205.984 12.422 199.892 18.605 C 196.541 22.006,193.236 25.352,192.547 26.041 C 191.858 26.730,188.144 30.444,184.294 34.294 C 180.444 38.144,176.754 41.834,176.094 42.494 C 175.434 43.154,171.538 47.048,167.437 51.147 C 158.416 60.164,159.921 58.658,151.037 67.547 C 146.998 71.588,143.154 75.434,142.494 76.094 C 140.934 77.654,127.654 90.934,126.094 92.494 C 125.434 93.154,121.563 97.023,117.492 101.092 C 108.537 110.043,110.043 108.537,101.092 117.492 C 97.023 121.563,93.154 125.434,92.494 126.094 C 90.934 127.654,77.654 140.934,76.094 142.494 C 75.434 143.154,71.563 147.023,67.492 151.092 C 58.708 159.872,60.214 158.366,51.145 167.438 C 47.105 171.479,43.222 175.373,42.515 176.092 C 41.808 176.812,40.458 178.102,39.515 178.959 L 37.800 180.518 37.542 184.559 C 37.401 186.782,37.301 209.300,37.320 234.600 C 37.339 259.900,37.465 278.800,37.600 276.600 C 37.814 273.108,37.855 273.527,37.923 279.900 C 37.965 283.915,38.135 287.189,38.300 287.175 C 38.465 287.160,39.770 285.897,41.200 284.366 C 42.630 282.836,44.747 280.642,45.904 279.492 C 47.061 278.341,50.797 274.610,54.206 271.200 C 61.487 263.918,62.965 262.440,71.252 254.154 C 74.690 250.716,78.403 247.003,79.503 245.903 C 80.603 244.803,84.293 241.113,87.703 237.703 C 91.113 234.293,94.826 230.580,95.955 229.452 C 97.083 228.323,100.796 224.610,104.206 221.200 C 111.925 213.479,113.697 211.708,121.354 204.052 C 124.736 200.670,128.403 197.003,129.503 195.903 C 130.603 194.803,134.293 191.113,137.703 187.703 C 141.113 184.293,144.803 180.603,145.903 179.503 C 147.003 178.403,150.693 174.713,154.103 171.303 C 162.352 163.052,164.035 161.370,171.251 154.155 C 174.633 150.774,178.345 147.061,179.500 145.904 C 187.789 137.598,187.527 137.713,187.702 142.300 C 187.775 144.225,187.873 121.545,187.918 91.900 L 188.000 38.000 200.000 38.000 L 212.000 38.000 212.077 75.700 C 212.120 96.435,212.265 111.600,212.400 109.400 L 212.645 105.400 212.723 108.700 C 212.824 113.022,211.921 113.507,221.364 104.052 C 224.740 100.670,228.403 97.003,229.503 95.903 C 230.603 94.803,234.293 91.113,237.703 87.703 C 241.113 84.293,244.826 80.580,245.955 79.452 C 247.083 78.323,250.796 74.610,254.206 71.200 C 262.441 62.963,264.032 61.372,271.251 54.155 C 274.633 50.774,278.345 47.061,279.500 45.904 C 287.789 37.598,287.527 37.713,287.702 42.300 L 287.835 45.800 287.918 41.980 C 287.963 39.879,287.865 37.989,287.700 37.780 C 287.535 37.571,287.571 37.535,287.780 37.700 C 287.989 37.865,289.879 37.963,291.980 37.918 L 295.800 37.835 292.300 37.702 C 287.713 37.527,287.598 37.789,295.904 29.500 C 314.943 10.497,313.165 12.827,308.700 12.723 L 305.400 12.645 309.400 12.400 C 311.600 12.265,286.760 12.160,254.200 12.165 C 221.640 12.171,197.471 12.231,200.492 12.299 "
            stroke="none" fill="#7ccefc" fill-rule="evenodd"></path>
        <path id="path2"
            d="M353.000 25.617 C 353.000 26.464,353.120 26.632,353.500 26.317 C 353.775 26.089,354.000 25.673,354.000 25.394 C 354.000 25.114,353.775 24.799,353.500 24.694 C 353.174 24.569,353.000 24.889,353.000 25.617 M354.400 27.728 C 354.400 27.925,354.664 27.984,354.987 27.860 C 355.310 27.736,355.698 27.835,355.849 28.079 C 356.015 28.348,355.941 28.411,355.662 28.238 C 355.388 28.069,355.200 28.207,355.200 28.576 C 355.200 28.919,355.362 29.155,355.560 29.100 C 355.758 29.045,355.943 29.169,355.971 29.375 C 355.999 29.581,355.760 29.788,355.440 29.835 C 355.121 29.882,352.324 32.503,349.227 35.660 C 346.129 38.817,343.077 41.916,342.444 42.547 C 341.521 43.468,332.298 52.688,326.094 58.894 C 320.668 64.321,313.169 71.600,313.003 71.600 C 312.892 71.600,312.768 70.295,312.729 68.700 C 312.662 65.975,312.644 66.041,312.429 69.800 C 312.138 74.884,312.577 146.711,312.901 147.034 C 313.181 147.314,314.782 145.828,322.156 138.451 C 325.096 135.509,328.762 131.842,330.302 130.302 C 331.842 128.762,335.532 125.072,338.501 122.101 C 341.471 119.131,345.341 115.261,347.101 113.501 C 348.861 111.741,352.528 108.079,355.251 105.362 C 357.973 102.646,360.605 99.974,361.100 99.426 C 361.984 98.447,362.000 98.244,362.000 88.238 C 362.000 81.876,362.150 77.954,362.400 77.800 C 362.948 77.461,362.948 42.939,362.400 42.600 C 362.180 42.464,362.000 41.834,362.000 41.200 C 362.000 40.566,361.820 39.936,361.600 39.800 C 361.380 39.664,361.200 39.013,361.200 38.353 C 361.200 37.693,361.065 37.236,360.900 37.338 C 360.735 37.440,360.573 37.067,360.539 36.509 C 360.506 35.952,360.299 35.384,360.079 35.248 C 359.860 35.111,359.617 34.640,359.540 34.200 C 359.352 33.125,358.510 32.285,357.960 32.625 C 357.659 32.811,357.601 32.626,357.783 32.055 C 358.152 30.892,356.098 27.242,355.116 27.316 C 354.722 27.346,354.400 27.531,354.400 27.728 M282.000 102.830 C 276.625 108.406,276.288 108.745,270.900 113.985 C 268.645 116.178,266.800 118.165,266.800 118.400 C 266.800 118.700,266.554 118.697,265.978 118.388 C 265.526 118.146,264.941 118.036,264.678 118.142 C 264.415 118.249,264.560 118.364,265.000 118.397 L 265.800 118.456 265.000 118.800 C 264.329 119.088,264.311 119.148,264.890 119.172 C 265.270 119.187,266.157 119.551,266.862 119.979 C 267.567 120.408,268.291 120.667,268.472 120.556 C 268.652 120.444,268.800 120.554,268.800 120.800 C 268.800 121.046,268.961 121.148,269.158 121.026 C 269.355 120.904,269.606 121.038,269.716 121.324 C 269.825 121.610,270.654 122.088,271.557 122.386 C 272.461 122.684,273.200 123.079,273.200 123.264 C 273.200 123.449,273.335 123.579,273.500 123.553 C 274.273 123.431,275.742 123.686,275.298 123.866 C 275.021 123.977,274.892 124.225,275.010 124.417 C 275.129 124.608,275.490 124.664,275.813 124.540 C 276.136 124.416,276.400 124.514,276.400 124.757 C 276.400 125.001,276.760 125.200,277.200 125.200 C 277.640 125.200,278.000 125.380,278.000 125.600 C 278.000 125.820,278.360 126.000,278.800 126.000 C 279.240 126.000,279.600 126.180,279.600 126.400 C 279.600 126.620,279.960 126.800,280.400 126.800 C 280.840 126.800,281.200 126.980,281.200 127.200 C 281.200 127.420,281.560 127.600,282.000 127.600 C 282.440 127.600,282.800 127.751,282.800 127.936 C 282.800 128.121,283.520 128.510,284.400 128.800 C 285.280 129.090,286.000 129.463,286.000 129.629 C 286.000 130.131,287.239 129.782,287.626 129.172 C 287.828 128.852,287.957 121.997,287.917 113.600 C 287.878 105.202,287.738 100.273,287.600 102.400 L 287.353 106.200 287.277 102.100 C 287.183 97.106,287.569 97.053,282.000 102.830 M248.145 139.289 C 247.973 139.567,248.065 139.607,248.400 139.400 C 248.739 139.190,248.827 139.233,248.649 139.521 C 248.498 139.765,248.105 139.862,247.775 139.735 C 247.431 139.603,246.840 139.892,246.388 140.414 C 245.869 141.012,245.596 141.131,245.588 140.761 C 245.579 140.369,245.451 140.414,245.163 140.908 C 244.936 141.298,244.554 141.495,244.314 141.347 C 244.051 141.185,243.991 141.261,244.162 141.538 C 244.354 141.849,244.047 142.000,243.224 142.000 C 242.330 142.000,241.997 142.189,241.987 142.700 C 241.970 143.674,241.041 144.800,240.256 144.800 C 239.895 144.800,239.597 145.025,239.594 145.300 C 239.590 145.633,239.458 145.600,239.200 145.200 C 238.869 144.688,238.811 144.703,238.806 145.303 C 238.801 145.880,234.289 150.701,225.988 159.000 C 224.962 160.025,212.747 172.241,208.947 176.040 C 208.258 176.730,204.544 180.444,200.694 184.294 C 196.844 188.144,193.154 191.834,192.494 192.494 C 191.834 193.154,188.144 196.844,184.294 200.694 C 180.444 204.544,176.754 208.234,176.094 208.894 C 174.533 210.454,160.454 224.533,158.894 226.094 C 158.234 226.754,154.544 230.444,150.694 234.294 C 146.844 238.144,143.154 241.834,142.494 242.494 C 141.834 243.154,138.144 246.844,134.294 250.694 C 130.444 254.544,126.754 258.234,126.094 258.894 C 124.533 260.454,110.454 274.533,108.894 276.094 C 108.234 276.754,104.544 280.444,100.694 284.294 C 96.844 288.144,93.154 291.834,92.494 292.494 C 91.834 293.154,88.144 296.844,84.294 300.694 C 80.444 304.544,76.754 308.234,76.094 308.894 C 75.434 309.554,71.564 313.424,67.494 317.494 C 63.424 321.564,59.554 325.434,58.894 326.094 C 58.234 326.754,54.568 330.419,50.747 334.239 C 46.926 338.060,43.216 341.773,42.503 342.493 C 40.393 344.620,38.438 346.400,38.211 346.400 C 38.095 346.400,38.000 345.110,38.000 343.533 C 38.000 337.933,37.676 341.119,37.455 348.900 C 37.314 353.853,37.373 356.800,37.615 356.800 C 37.827 356.800,38.000 357.484,38.000 358.320 C 38.000 359.156,38.179 360.019,38.398 360.238 C 38.616 360.456,38.836 361.122,38.885 361.718 C 38.934 362.313,39.115 362.800,39.287 362.800 C 39.459 362.800,39.600 363.263,39.600 363.829 C 39.600 364.394,39.879 365.136,40.220 365.477 C 40.560 365.818,40.942 366.612,41.068 367.242 C 41.194 367.872,41.416 368.314,41.560 368.224 C 41.705 368.135,42.422 369.217,43.154 370.628 C 43.886 372.040,44.646 373.095,44.842 372.974 C 45.039 372.852,45.200 372.914,45.200 373.111 C 45.200 373.679,48.063 377.200,48.525 377.200 C 48.755 377.200,49.545 377.856,50.279 378.659 C 51.014 379.461,51.716 380.018,51.838 379.895 C 51.960 379.773,52.692 380.286,53.465 381.036 C 54.237 381.786,55.168 382.406,55.534 382.413 C 55.900 382.420,56.545 382.687,56.967 383.006 C 57.508 383.416,57.882 383.464,58.234 383.171 C 58.616 382.855,58.707 383.006,58.619 383.811 C 58.524 384.671,58.641 384.830,59.251 384.671 C 59.725 384.547,60.000 384.685,60.000 385.047 C 60.000 385.514,60.201 385.493,61.100 384.930 C 61.705 384.552,62.067 384.396,61.903 384.584 C 61.522 385.024,62.371 386.065,62.863 385.761 C 63.068 385.635,63.532 385.772,63.894 386.066 C 64.456 386.521,64.508 386.511,64.247 386.000 C 64.022 385.559,64.082 385.571,64.475 386.047 C 64.926 386.592,65.091 386.607,65.521 386.147 C 66.169 385.453,67.756 385.416,67.494 386.100 C 67.348 386.479,68.159 386.589,70.833 386.556 L 74.363 386.513 75.882 384.839 C 76.717 383.918,78.706 381.868,80.302 380.283 C 81.898 378.697,85.633 374.970,88.603 372.000 C 98.685 361.917,108.471 352.131,122.152 338.451 C 128.986 331.618,131.732 328.871,138.501 322.101 C 151.037 309.565,159.565 301.037,172.101 288.501 C 178.876 281.727,181.740 278.863,188.451 272.152 C 200.863 259.739,209.571 251.031,222.101 238.501 C 228.875 231.728,231.728 228.875,238.501 222.101 C 251.037 209.565,259.498 201.104,272.152 188.451 C 275.150 185.453,278.840 181.763,280.352 180.251 C 281.864 178.739,285.509 175.096,288.451 172.156 C 297.448 163.164,297.324 163.312,296.667 162.374 C 296.188 161.691,296.062 161.661,295.862 162.182 C 295.732 162.522,295.420 162.800,295.170 162.800 C 294.919 162.800,294.823 162.518,294.955 162.174 C 295.141 161.689,295.010 161.606,294.372 161.809 C 293.808 161.988,293.572 161.902,293.622 161.535 C 293.773 160.426,293.579 160.000,292.924 160.000 C 292.301 160.000,292.303 160.041,292.949 160.513 C 293.604 160.992,293.596 161.030,292.825 161.088 C 292.371 161.122,292.000 160.981,292.000 160.775 C 292.000 160.569,291.640 160.400,291.200 160.400 C 290.613 160.400,290.400 160.133,290.400 159.400 C 290.400 158.850,290.209 158.400,289.976 158.400 C 289.743 158.400,289.654 158.563,289.777 158.763 C 289.900 158.962,289.626 159.027,289.167 158.907 C 288.549 158.746,288.468 158.605,288.855 158.366 C 289.256 158.118,289.208 157.978,288.648 157.763 C 288.199 157.591,287.784 157.698,287.566 158.042 C 287.275 158.500,287.211 158.503,287.206 158.057 C 287.202 157.732,286.951 157.610,286.579 157.753 C 286.223 157.889,286.063 157.822,286.203 157.595 C 286.337 157.378,286.257 157.200,286.024 157.200 C 285.791 157.200,285.645 156.975,285.700 156.700 C 285.755 156.425,285.499 156.223,285.132 156.250 C 284.718 156.281,284.544 156.091,284.674 155.750 C 284.935 155.072,284.330 155.030,283.680 155.680 C 283.307 156.053,283.200 155.964,283.200 155.280 C 283.200 154.679,282.957 154.400,282.431 154.400 C 282.009 154.400,280.119 153.592,278.231 152.605 C 276.344 151.618,274.800 150.926,274.800 151.067 C 274.800 151.208,274.440 150.998,274.000 150.600 C 273.560 150.202,273.200 150.007,273.200 150.167 C 273.200 150.326,272.908 150.165,272.552 149.809 C 272.195 149.452,271.385 149.057,270.752 148.930 C 270.118 148.804,269.600 148.542,269.600 148.350 C 269.600 148.157,269.416 148.000,269.192 148.000 C 268.968 148.000,268.023 147.519,267.092 146.932 C 266.161 146.344,265.355 145.894,265.300 145.932 C 264.912 146.196,264.002 145.921,264.200 145.600 C 264.336 145.380,264.194 145.200,263.885 145.200 C 263.077 145.200,260.800 144.007,260.800 143.583 C 260.800 143.386,260.530 143.329,260.200 143.455 C 259.870 143.582,259.600 143.486,259.600 143.243 C 259.600 142.999,259.348 142.800,259.041 142.800 C 258.733 142.800,257.455 142.260,256.200 141.600 C 254.945 140.940,253.656 140.400,253.336 140.400 C 253.015 140.400,252.858 140.229,252.987 140.021 C 253.116 139.812,252.857 139.712,252.411 139.798 C 251.870 139.902,251.600 139.742,251.600 139.315 C 251.600 138.766,251.474 138.784,250.707 139.438 C 250.152 139.911,250.000 139.958,250.305 139.561 C 250.730 139.009,250.634 138.917,249.605 138.888 C 248.950 138.869,248.293 139.050,248.145 139.289 M240.685 142.972 C 240.312 143.345,239.825 143.539,239.603 143.402 C 239.381 143.265,239.200 143.433,239.200 143.776 C 239.200 144.119,239.425 144.394,239.700 144.387 C 240.492 144.367,241.699 143.298,241.524 142.772 C 241.413 142.439,241.157 142.500,240.685 142.972 M235.830 145.733 C 235.954 146.056,236.358 146.277,236.728 146.222 C 237.707 146.079,237.551 145.421,236.502 145.272 C 235.848 145.180,235.665 145.305,235.830 145.733 M234.400 146.433 C 234.400 146.672,234.175 146.786,233.900 146.686 C 233.625 146.587,232.905 146.791,232.300 147.139 C 231.140 147.807,230.777 148.537,231.800 148.145 C 232.130 148.018,232.400 147.747,232.400 147.543 C 232.400 147.334,232.749 147.359,233.200 147.600 C 233.773 147.907,234.000 147.904,234.000 147.590 C 234.000 147.350,234.180 147.264,234.400 147.400 C 234.620 147.536,234.800 147.446,234.800 147.200 C 234.800 146.954,234.950 146.845,235.133 146.959 C 235.317 147.072,235.467 146.903,235.467 146.582 C 235.467 146.262,235.227 146.000,234.933 146.000 C 234.640 146.000,234.400 146.195,234.400 146.433 M230.256 148.678 C 229.805 149.128,229.981 149.600,230.600 149.600 C 230.930 149.600,231.200 149.431,231.200 149.224 C 231.200 148.719,230.575 148.358,230.256 148.678 M77.700 387.897 C 79.185 387.974,81.615 387.974,83.100 387.897 C 84.585 387.820,83.370 387.757,80.400 387.757 C 77.430 387.757,76.215 387.820,77.700 387.897 "
            stroke="none" fill="#7cbcfc" fill-rule="evenodd"></path>
        <path id="path3"
            d="M309.400 12.384 L 305.400 12.645 308.700 12.723 C 313.165 12.827,314.943 10.497,295.904 29.500 C 291.532 33.863,288.800 36.798,288.800 37.131 C 288.800 37.568,297.046 37.996,305.500 37.998 L 312.000 38.000 312.077 55.700 C 312.119 65.435,312.264 71.690,312.400 69.600 L 312.647 65.800 312.723 68.700 C 312.766 70.295,312.892 71.600,313.003 71.600 C 313.169 71.600,320.668 64.321,326.094 58.894 C 332.298 52.688,341.521 43.468,342.444 42.547 C 343.077 41.916,346.129 38.817,349.227 35.660 C 352.324 32.503,355.121 29.882,355.440 29.835 C 355.760 29.788,355.972 29.581,355.911 29.375 C 355.850 29.169,355.665 29.045,355.500 29.100 C 355.335 29.155,355.200 28.919,355.200 28.576 C 355.200 28.184,355.385 28.064,355.700 28.253 C 356.040 28.457,356.024 28.337,355.651 27.877 C 355.349 27.505,355.259 27.195,355.451 27.188 C 355.643 27.181,355.481 26.990,355.092 26.763 C 354.702 26.536,354.488 26.182,354.615 25.975 C 354.970 25.401,354.341 25.529,353.626 26.177 C 353.054 26.694,352.995 26.617,353.051 25.430 C 353.122 23.919,352.891 23.449,351.900 23.083 C 351.515 22.941,351.200 22.549,351.200 22.213 C 351.200 21.876,351.048 21.600,350.861 21.600 C 350.675 21.600,350.152 21.285,349.699 20.900 C 348.368 19.770,347.303 19.078,347.021 19.162 C 346.876 19.204,346.245 18.691,345.618 18.020 C 344.992 17.349,344.101 16.800,343.640 16.800 C 343.178 16.800,342.800 16.620,342.800 16.400 C 342.800 16.180,342.530 16.000,342.200 16.000 C 341.870 16.000,341.600 15.809,341.600 15.576 C 341.600 15.343,341.447 15.248,341.259 15.364 C 341.071 15.480,340.576 15.316,340.159 15.000 C 339.742 14.684,339.006 14.420,338.524 14.413 C 338.042 14.406,337.550 14.243,337.432 14.052 C 337.232 13.729,335.703 13.283,333.800 12.993 C 332.650 12.818,331.858 12.609,331.400 12.359 C 330.836 12.052,314.210 12.071,309.400 12.384 M357.846 31.824 C 357.527 32.656,357.664 32.855,358.290 32.468 C 358.561 32.301,358.622 31.959,358.435 31.656 C 358.184 31.250,358.052 31.288,357.846 31.824 M284.101 41.330 C 282.727 42.689,280.680 44.723,279.553 45.852 C 278.426 46.980,274.690 50.716,271.252 54.154 C 263.477 61.928,261.915 63.489,254.206 71.200 C 250.796 74.610,247.106 78.300,246.006 79.400 C 244.906 80.500,241.170 84.236,237.703 87.703 C 234.236 91.170,230.546 94.860,229.503 95.903 C 228.460 96.946,224.820 100.590,221.415 104.000 C 211.913 113.516,212.821 113.024,212.732 108.700 L 212.664 105.400 212.383 109.800 C 212.228 112.220,212.079 117.671,212.051 121.913 C 211.994 130.579,212.027 130.673,214.682 129.268 C 215.517 128.826,216.785 128.226,217.500 127.935 C 218.215 127.643,218.800 127.269,218.800 127.102 C 218.800 126.936,219.124 126.800,219.520 126.800 C 219.916 126.800,220.411 126.637,220.620 126.438 C 221.283 125.806,224.003 124.400,224.563 124.400 C 224.860 124.400,225.324 124.132,225.596 123.804 C 225.868 123.477,226.250 123.307,226.445 123.428 C 226.640 123.549,226.800 123.457,226.800 123.224 C 226.800 122.991,227.025 122.800,227.300 122.801 C 227.909 122.802,231.350 121.110,231.526 120.722 C 231.595 120.570,231.940 120.555,232.291 120.690 C 232.716 120.854,232.834 120.779,232.642 120.468 C 232.483 120.211,232.543 120.000,232.776 120.000 C 233.009 120.000,233.286 119.992,233.391 119.983 C 233.496 119.974,234.595 119.434,235.832 118.783 C 237.069 118.132,238.333 117.600,238.641 117.600 C 238.948 117.600,239.200 117.420,239.200 117.200 C 239.200 116.980,239.470 116.800,239.800 116.800 C 240.130 116.800,240.400 116.640,240.400 116.444 C 240.400 116.248,241.210 115.849,242.200 115.557 C 243.190 115.265,244.000 114.906,244.000 114.761 C 244.000 114.349,246.296 113.500,247.411 113.500 C 247.963 113.500,248.512 113.343,248.631 113.150 C 248.915 112.690,250.841 112.712,251.587 113.183 C 251.966 113.423,252.381 113.386,252.763 113.077 C 253.232 112.698,253.288 112.708,253.037 113.127 C 252.833 113.465,252.913 113.627,253.260 113.579 C 254.351 113.430,254.840 113.611,254.562 114.062 C 254.393 114.336,254.451 114.415,254.706 114.258 C 254.942 114.112,255.407 114.264,255.739 114.596 C 256.071 114.928,256.590 115.200,256.891 115.200 C 257.193 115.200,257.682 115.425,257.979 115.700 C 258.417 116.106,258.456 116.088,258.190 115.600 C 257.927 115.118,258.014 115.129,258.631 115.652 C 259.886 116.715,262.031 117.674,262.636 117.441 C 262.951 117.321,263.200 117.465,263.200 117.770 C 263.200 118.362,264.076 118.816,265.133 118.772 C 265.666 118.749,265.639 118.675,265.000 118.400 C 264.560 118.211,264.437 118.044,264.726 118.028 C 265.016 118.013,265.601 118.186,266.026 118.414 C 266.567 118.704,266.800 118.699,266.800 118.400 C 266.800 118.165,268.645 116.178,270.900 113.985 C 275.893 109.130,276.024 108.999,281.986 102.900 C 284.621 100.205,286.872 98.000,286.988 98.000 C 287.105 98.000,287.230 99.845,287.267 102.100 L 287.334 106.200 287.618 102.000 C 287.984 96.590,288.078 50.586,287.737 43.900 C 287.433 37.954,287.483 37.989,284.101 41.330 M184.101 141.330 C 182.727 142.689,180.680 144.723,179.553 145.852 C 178.426 146.980,174.690 150.716,171.252 154.154 C 163.477 161.928,161.915 163.489,154.206 171.200 C 150.796 174.610,147.106 178.300,146.006 179.400 C 144.906 180.500,141.170 184.236,137.703 187.703 C 134.236 191.170,130.546 194.860,129.503 195.903 C 128.460 196.946,124.816 200.590,121.406 204.000 C 113.686 211.718,111.948 213.456,104.102 221.303 C 100.636 224.770,96.946 228.460,95.903 229.503 C 94.860 230.546,91.170 234.236,87.703 237.703 C 84.236 241.170,80.500 244.906,79.400 246.006 C 78.300 247.106,74.610 250.796,71.200 254.206 C 62.948 262.457,61.258 264.146,54.104 271.302 C 50.751 274.656,47.061 278.341,45.904 279.492 C 44.747 280.642,42.630 282.836,41.200 284.366 C 39.770 285.897,38.465 287.160,38.300 287.175 C 38.135 287.189,37.969 283.915,37.932 279.900 C 37.866 272.857,37.854 272.755,37.583 277.000 C 37.428 279.420,37.315 296.880,37.331 315.800 C 37.348 334.720,37.469 348.040,37.600 345.400 C 37.788 341.632,37.856 341.223,37.920 343.500 C 37.964 345.095,38.095 346.400,38.211 346.400 C 38.438 346.400,40.393 344.620,42.503 342.493 C 43.216 341.773,46.926 338.060,50.747 334.239 C 54.568 330.419,58.234 326.754,58.894 326.094 C 60.454 324.533,74.533 310.454,76.094 308.894 C 76.754 308.234,80.444 304.544,84.294 300.694 C 88.144 296.844,91.834 293.154,92.494 292.494 C 93.154 291.834,96.844 288.144,100.694 284.294 C 104.544 280.444,108.234 276.754,108.894 276.094 C 110.454 274.533,124.533 260.454,126.094 258.894 C 126.754 258.234,130.444 254.544,134.294 250.694 C 138.144 246.844,141.834 243.154,142.494 242.494 C 143.154 241.834,146.844 238.144,150.694 234.294 C 154.544 230.444,158.234 226.754,158.894 226.094 C 160.454 224.533,174.533 210.454,176.094 208.894 C 176.754 208.234,180.444 204.544,184.294 200.694 C 188.144 196.844,191.834 193.154,192.494 192.494 C 193.154 191.834,196.820 188.168,200.641 184.347 C 204.461 180.526,208.127 176.860,208.787 176.200 C 212.453 172.534,224.973 160.015,226.041 158.947 C 234.334 150.656,238.801 145.882,238.806 145.303 C 238.811 144.703,238.869 144.688,239.200 145.200 C 239.458 145.600,239.590 145.633,239.594 145.300 C 239.597 145.025,239.895 144.800,240.256 144.800 C 240.617 144.800,241.151 144.485,241.443 144.100 C 242.280 142.998,242.088 142.687,241.125 143.584 C 240.202 144.444,239.200 144.667,239.200 144.013 C 239.200 143.799,238.925 143.731,238.588 143.860 C 238.178 144.017,238.060 144.376,238.229 144.947 C 238.481 145.794,238.478 145.794,237.829 145.000 C 237.185 144.212,237.177 144.214,237.288 145.158 C 237.365 145.818,237.182 146.150,236.700 146.223 C 236.315 146.281,236.000 146.165,236.000 145.965 C 236.000 145.764,235.830 145.600,235.623 145.600 C 235.416 145.600,235.316 145.965,235.402 146.411 C 235.488 146.857,235.388 147.116,235.179 146.987 C 234.971 146.858,234.800 146.954,234.800 147.200 C 234.800 147.446,234.620 147.536,234.400 147.400 C 234.180 147.264,234.000 147.352,234.000 147.596 C 234.000 147.894,233.779 147.916,233.328 147.664 C 232.867 147.406,232.486 147.457,232.116 147.827 C 231.820 148.123,231.305 148.262,230.974 148.134 C 230.642 148.007,230.028 148.212,229.610 148.591 C 229.169 148.990,228.630 149.151,228.325 148.975 C 228.031 148.805,227.941 148.826,228.119 149.022 C 228.418 149.349,224.558 151.398,223.900 151.262 C 223.735 151.228,223.600 151.380,223.600 151.600 C 223.600 151.820,223.150 152.000,222.600 152.000 C 221.961 152.000,221.600 152.225,221.600 152.624 C 221.600 152.967,221.442 153.149,221.249 153.030 C 220.809 152.758,218.400 153.931,218.400 154.417 C 218.400 154.614,218.100 154.660,217.734 154.519 C 217.287 154.348,217.164 154.417,217.358 154.732 C 217.555 155.050,217.256 155.200,216.424 155.200 C 215.603 155.200,215.200 155.397,215.200 155.800 C 215.200 156.130,215.065 156.370,214.900 156.334 C 214.303 156.204,212.400 156.895,212.400 157.243 C 212.400 157.440,212.152 157.600,211.849 157.600 C 211.546 157.600,211.076 157.868,210.804 158.196 C 210.532 158.523,210.162 158.700,209.982 158.589 C 209.802 158.478,208.991 158.837,208.180 159.388 C 207.369 159.938,206.547 160.291,206.353 160.171 C 206.159 160.051,206.000 160.122,206.000 160.330 C 206.000 161.303,200.805 161.959,197.000 161.467 C 195.051 161.214,192.348 159.808,192.337 159.041 C 192.336 158.942,191.618 158.108,190.742 157.187 C 189.811 156.209,189.240 155.272,189.370 154.935 C 189.491 154.618,189.432 154.456,189.239 154.576 C 189.045 154.696,188.797 154.210,188.688 153.497 C 188.579 152.784,188.390 151.798,188.269 151.308 C 188.148 150.817,187.922 147.802,187.767 144.608 C 187.439 137.875,187.522 137.949,184.101 141.330 M231.200 149.224 C 231.200 149.431,230.930 149.600,230.600 149.600 C 229.981 149.600,229.805 149.128,230.256 148.678 C 230.575 148.358,231.200 148.719,231.200 149.224 "
            stroke="none" fill="#7cc4fc" fill-rule="evenodd"></path>
        <path id="path4"
            d="M357.119 29.597 C 357.493 30.256,357.947 30.796,358.127 30.797 C 358.307 30.799,358.070 30.260,357.600 29.600 C 356.502 28.058,356.242 28.057,357.119 29.597 M362.300 77.833 C 362.135 77.998,362.000 82.700,362.000 88.281 C 362.000 98.242,361.983 98.447,361.100 99.426 C 360.605 99.974,357.973 102.646,355.251 105.362 C 352.528 108.079,348.861 111.741,347.101 113.501 C 345.341 115.261,341.471 119.131,338.501 122.101 C 335.532 125.072,331.842 128.762,330.302 130.302 C 328.762 131.842,325.096 135.509,322.156 138.451 C 314.689 145.922,313.181 147.314,312.880 147.014 C 312.736 146.869,312.512 131.687,312.382 113.276 L 312.145 79.800 312.173 114.862 C 312.188 134.146,312.070 149.844,311.912 149.745 C 311.468 149.471,311.083 151.478,311.364 152.600 C 311.503 153.153,311.441 153.600,311.226 153.600 C 311.012 153.600,310.482 154.403,310.048 155.384 C 309.375 156.906,306.400 160.495,306.400 159.785 C 306.400 159.652,306.115 159.827,305.768 160.175 C 305.420 160.523,304.990 160.718,304.813 160.608 C 304.636 160.498,304.270 160.675,304.000 161.001 C 303.686 161.378,303.126 161.511,302.454 161.369 C 301.459 161.158,301.442 161.180,302.147 161.751 C 302.871 162.338,302.869 162.355,302.075 162.296 C 301.624 162.262,301.288 162.069,301.328 161.867 C 301.367 161.665,301.175 161.418,300.900 161.317 C 300.625 161.216,300.400 161.303,300.400 161.511 C 300.400 161.913,297.549 161.385,296.305 160.753 C 295.923 160.559,295.263 160.400,294.839 160.400 C 294.414 160.400,293.976 160.175,293.865 159.900 C 293.742 159.597,293.651 159.670,293.632 160.087 C 293.611 160.545,293.388 160.694,292.966 160.532 C 292.510 160.357,292.466 160.206,292.809 159.994 C 293.176 159.768,293.173 159.631,292.798 159.399 C 292.527 159.231,292.146 159.342,291.939 159.649 C 291.656 160.068,291.595 160.012,291.683 159.415 C 291.756 158.926,291.535 158.575,291.100 158.485 C 290.577 158.378,290.400 158.602,290.400 159.371 C 290.400 160.133,290.607 160.400,291.200 160.400 C 291.640 160.400,292.000 160.584,292.000 160.808 C 292.000 161.032,292.439 161.136,292.976 161.039 C 293.728 160.902,293.897 161.003,293.715 161.477 C 293.531 161.956,293.669 162.032,294.337 161.820 C 295.010 161.606,295.143 161.683,294.955 162.174 C 294.823 162.518,294.919 162.800,295.170 162.800 C 295.420 162.800,295.732 162.522,295.862 162.182 C 296.062 161.661,296.188 161.691,296.667 162.374 C 297.324 163.312,297.448 163.164,288.451 172.156 C 285.509 175.096,281.819 178.784,280.251 180.352 C 278.683 181.920,275.016 185.588,272.101 188.502 C 259.813 200.789,250.856 209.746,238.451 222.152 C 231.744 228.859,228.987 231.617,222.152 238.451 C 209.537 251.065,200.830 259.772,188.451 272.152 C 185.509 275.094,181.842 278.762,180.302 280.302 C 178.762 281.842,175.049 285.554,172.051 288.552 C 159.397 301.205,150.869 309.733,138.451 322.152 C 131.740 328.864,128.864 331.740,122.152 338.451 C 108.717 351.885,98.370 362.232,88.502 372.101 C 85.588 375.016,81.898 378.697,80.302 380.283 C 78.706 381.868,76.717 383.918,75.882 384.839 L 74.363 386.513 70.833 386.556 C 68.159 386.589,67.348 386.479,67.494 386.100 C 67.764 385.395,66.193 385.464,65.467 386.190 C 64.986 386.671,64.840 386.681,64.672 386.243 C 64.558 385.948,64.046 385.738,63.533 385.776 C 62.432 385.859,61.507 385.275,61.853 384.715 C 61.987 384.498,61.696 384.534,61.207 384.796 L 60.318 385.272 61.259 385.739 C 63.377 386.789,65.361 387.316,65.511 386.867 C 65.602 386.595,65.972 386.715,66.471 387.180 C 67.422 388.066,332.445 388.498,332.991 387.615 C 333.132 387.387,333.856 387.200,334.600 387.200 C 335.344 387.200,336.064 387.020,336.200 386.800 C 336.336 386.580,336.715 386.400,337.043 386.400 C 337.371 386.400,338.384 386.040,339.294 385.600 C 340.205 385.160,341.186 384.800,341.475 384.800 C 341.764 384.800,342.000 384.620,342.000 384.400 C 342.000 384.180,342.360 384.000,342.800 384.000 C 343.240 384.000,343.600 383.820,343.600 383.600 C 343.600 383.380,343.870 383.200,344.200 383.200 C 344.530 383.200,344.800 383.020,344.800 382.800 C 344.800 382.580,345.120 382.400,345.512 382.400 C 345.903 382.400,346.483 382.040,346.800 381.600 C 347.117 381.160,347.602 380.800,347.879 380.800 C 350.198 380.800,360.389 367.368,360.398 364.300 C 360.399 363.915,360.580 363.600,360.800 363.600 C 361.020 363.600,361.200 363.060,361.200 362.400 C 361.200 361.740,361.380 361.200,361.600 361.200 C 361.820 361.200,362.000 360.495,362.000 359.633 C 362.000 358.772,362.180 358.007,362.401 357.933 C 362.667 357.844,362.768 310.954,362.701 217.666 C 362.645 140.593,362.465 77.668,362.300 77.833 M249.000 113.200 C 248.855 113.434,249.270 113.600,250.000 113.600 C 250.730 113.600,251.145 113.434,251.000 113.200 C 250.864 112.980,250.414 112.800,250.000 112.800 C 249.586 112.800,249.136 112.980,249.000 113.200 M229.200 122.200 C 228.650 122.514,228.380 122.772,228.600 122.772 C 228.820 122.772,229.450 122.514,230.000 122.200 C 230.550 121.886,230.820 121.628,230.600 121.628 C 230.380 121.628,229.750 121.886,229.200 122.200 M226.600 123.236 C 226.380 123.454,225.840 123.903,225.400 124.234 C 224.960 124.565,225.365 124.464,226.300 124.010 C 227.235 123.555,228.000 123.097,228.000 122.992 C 228.000 122.654,227.014 122.826,226.600 123.236 M287.476 129.346 C 287.327 129.733,287.024 129.939,286.803 129.802 C 286.581 129.665,286.400 129.733,286.400 129.953 C 286.400 130.173,286.560 130.451,286.755 130.572 C 287.228 130.865,288.119 129.757,287.911 129.134 C 287.806 128.817,287.650 128.893,287.476 129.346 M262.494 144.487 C 262.587 144.769,263.056 145.058,263.537 145.129 C 264.018 145.199,264.321 145.404,264.210 145.583 C 264.100 145.762,264.367 146.003,264.804 146.117 C 266.352 146.522,265.935 145.728,264.143 144.857 C 262.968 144.286,262.384 144.155,262.494 144.487 M267.200 146.807 C 267.200 146.986,267.740 147.372,268.400 147.664 C 269.060 147.956,269.600 148.309,269.600 148.448 C 269.600 148.586,270.118 148.804,270.752 148.930 C 271.385 149.057,272.195 149.452,272.552 149.809 C 272.908 150.165,273.200 150.326,273.200 150.167 C 273.200 150.007,273.560 150.202,274.000 150.600 C 274.440 150.998,274.800 151.208,274.800 151.067 C 274.800 150.926,276.356 151.624,278.258 152.619 C 280.160 153.614,281.878 154.374,282.077 154.308 C 282.275 154.242,279.009 152.454,274.818 150.334 C 270.628 148.214,267.200 146.627,267.200 146.807 M285.866 156.573 C 285.733 156.918,285.810 157.200,286.036 157.200 C 286.262 157.200,286.337 157.378,286.203 157.595 C 286.063 157.822,286.223 157.889,286.579 157.753 C 286.924 157.620,287.200 157.724,287.200 157.986 C 287.200 158.290,287.412 158.245,287.800 157.857 C 288.588 157.069,288.557 156.800,287.680 156.800 C 287.284 156.800,286.768 156.608,286.533 156.373 C 286.231 156.071,286.036 156.129,285.866 156.573 M288.947 157.914 C 289.089 158.144,288.984 158.405,288.713 158.496 C 288.442 158.586,288.602 158.759,289.068 158.881 C 290.016 159.129,290.150 157.983,289.209 157.670 C 288.922 157.574,288.805 157.684,288.947 157.914 M37.200 357.400 C 37.200 357.730,37.380 358.000,37.600 358.000 C 37.820 358.000,38.000 357.730,38.000 357.400 C 38.000 357.070,37.820 356.800,37.600 356.800 C 37.380 356.800,37.200 357.070,37.200 357.400 M44.691 373.052 C 44.470 373.411,46.554 376.000,47.064 376.000 C 47.216 376.000,46.973 375.595,46.524 375.100 C 46.076 374.605,45.530 373.862,45.310 373.449 C 45.090 373.035,44.812 372.857,44.691 373.052 M48.886 378.138 C 49.389 378.655,49.859 378.926,49.932 378.742 C 50.100 378.317,49.001 377.200,48.414 377.200 C 48.171 377.200,48.383 377.622,48.886 378.138 M50.400 379.152 C 50.400 379.819,51.402 380.800,52.083 380.800 C 52.380 380.800,52.883 381.160,53.200 381.600 C 53.517 382.040,54.023 382.400,54.324 382.400 C 54.629 382.400,54.280 381.810,53.535 381.067 C 52.801 380.333,52.038 379.821,51.839 379.928 C 51.641 380.035,51.236 379.790,50.939 379.385 C 50.628 378.959,50.400 378.860,50.400 379.152 M55.200 382.726 C 55.200 383.063,57.748 384.400,58.389 384.400 C 58.588 384.400,58.724 384.049,58.692 383.620 C 58.652 383.092,58.488 382.961,58.184 383.214 C 57.897 383.452,57.457 383.377,56.967 383.006 C 56.120 382.365,55.200 382.219,55.200 382.726 "
            stroke="none" fill="#74b4fc" fill-rule="evenodd"></path>
    </g>
</svg>